# xmcd CD database file
#
# Track frame offsets:
#	150
#	3682
#	19012
#	19367
#	43195
#	43660
#	60412
#	61285
#	74245
#	81407
#	103957
#	133372
#	159652
#	160145
#	178057
#	190537
#	218382
#
# Disc length: 3193 seconds
#
# Revision: 1
# Processed by: cddbd v1.5.2PL0 Copyright (c) Steve Scherf et al.
# Submitted via: CDex 1.51
#
DISCID=f60c7711
DTITLE=Body Count - Body Count
DYEAR=1900
DGENRE=Rap
TTITLE0=Smoked York
TTITLE1=Body Count In The House
TTITLE2=Now Sports
TTITLE3=Body Count
TTITLE4=A Statistic
TTITLE5=Bowles Of The Devil
TTITLE6=The Real Problem
TTITLE7=KKK Bitch
TTITLE8=C Note
TTITLE9=Vodoo
TTITLE10=The Winner Loses
TTITLE11=There Goes The Neighborhood
TTITLE12=Oprah
TTITLE13=Evil Dick
TTITLE14=Body Count Anthem
TTITLE15=Moma's Gotta Die Tonight
TTITLE16=Ice-T - Freedom Of Speech
EXTD=
EXTT0=
EXTT1=
EXTT2=
EXTT3=
EXTT4=
EXTT5=
EXTT6=
EXTT7=
EXTT8=
EXTT9=
EXTT10=
EXTT11=
EXTT12=
EXTT13=
EXTT14=
EXTT15=
EXTT16=
PLAYORDER=
